<?xml version="1.0" encoding="utf-8"?><svg xmlns:svg="http://www.w3.org/2000/svg" xmlns="http://www.w3.org/2000/svg" height="420" width="491.51" version="1"><path d="M73.6 0C10.64 0-0.21 0.14 0 1.09 0.14 1.69 14.64 19.87 32.22 41.47c17.59 21.6 32.28 40.06 32.66 41 0.57 1.42-0.27 3.18-4.79 9.94-11.26 16.86-18.43 31.47-24.79 50.5-7.9 23.6-10.51 40.09-10.51 66.29 0 19.88 0.97 29.47 4.71 46.16 12.93 57.57 50.85 108.05 102.85 136.92 22.28 12.37 51.25 21.72 75.91 24.5 4.12 0.46 8.74 0.98 10.26 1.16 7.08 0.82 35.62-0.33 45.39-1.83 13.11-2 21.71-4.03 34.05-8.04 7.01-2.28 9.8-3.53 9.62-4.32-0.49-2.24-89.46-111.57-91.43-112.35-1.09-0.43-4.11-1.38-6.71-2.1-12.52-3.45-25.83-11.69-36.09-22.35-22.46-23.33-29.27-56.17-18.03-86.94 8.19-22.43 26.58-40.86 49.02-49.05 14.43-5.27 7.5-4.91 112.03-5.4l95.08-0.44 3.95-6.32C417.59 115.34 435.53 87.81 455.26 57.63 474.99 27.45 491.29 2.13 491.5 1.36 491.87 0.01 485.82-0.04 352.65 0.2 214.59 0.44 213.32 0.44 203.1 2.12 190.35 4.21 178.69 7.05 167.99 10.66c-4.5 1.52-8.39 2.76-8.66 2.76-0.27 0-3.04-3.02-6.17-6.71L147.46 0 73.6 0ZM328.5 140.67c-26.51-0.01-45.22 0.1-45.22 0.27 0 0.24 3.33 3.61 7.4 7.5 12.12 11.59 19.76 24.34 23.98 40.07 1.82 6.79 2.05 9.15 2.05 20.7 0 11.63-0.21 13.86-2.1 20.9-9.02 33.64-36.75 57.72-71.79 62.37-2.06 0.27-3.75 0.84-3.75 1.26 0 1.33 97.61 121.78 101.2 124.88 1.5 1.29 6.3 1.38 76.09 1.38 47.13 0 74.63-0.28 74.93-0.76 0.26-0.42-17.41-22.54-39.28-49.14-21.86-26.61-39.99-48.8-40.29-49.29-0.3-0.49 1.57-4.61 4.14-9.15 12.46-21.99 21.09-47.62 25.04-74.41 2.11-14.33 1.93-43.63-0.37-58.42-1.74-11.18-5.12-25.6-7.87-33.55l-1.5-4.34-73.94-0.22c-10.17-0.03-19.88-0.02-28.72-0.02z" fill="#0f348d"/></svg>